<svg width="276" height="36" xmlns="http://www.w3.org/2000/svg">
  <g fill="#FFF" fill-rule="nonzero">
    <path d="M242.531 30.927c0-.49-.33-.818-.824-.818h-14.344c-.494 0-.824.327-.824.818 0 .491.33.818.824.818h14.344c.495 0 .824-.409.824-.818zM230.66 34.2h-1.648c-.495 0-.824.327-.824.818 0 .491.33.818.824.818h1.649c.494 0 .824-.327.824-.818 0-.49-.33-.818-.824-.818zM234.535 26.836c0-.49-.33-.818-.824-.818h-7.996c-.495 0-.825.327-.825.818 0 .491.33.819.825.819h7.996c.494 0 .824-.41.824-.819z"/>
    <path d="M275.505 28.227c-.247-.49-.742-.9-1.236-1.145l-6.265-2.373-2.556-.9c-.742-.327-1.401-.818-1.813-1.473l-2.144-3.518c.413-.082.66-.409.66-.818 0-.49-.33-.818-.824-.818h-.825l-.989-1.637c.412-.081.66-.409.66-.818 0-.49-.33-.818-.825-.818h-.824l-.825-1.309a.787.787 0 00.577-.736c0-.491-.33-.819-.824-.819h-.742l-1.071-1.718s0-.082-.083-.082c-.99-1.145-2.308-1.718-3.71-1.554-1.236.164-2.225.9-2.637 1.8-.083.245-.083.49.082.736l6.842 11.618c.083.164.247.328.412.328l8.409 3.19h.082l2.473.9 6.183 2.373c.165.082.33.164.412.41.33.654.33 1.309-.082 1.963h-13.437c-.825 0-1.649-.245-2.309-.736l-22.999-16.937s.33-.163.742-.736.577-1.31.577-2.045l-.742-6.873.99-1.555c.247-.327.741-.409 1.071-.163.247.245 1.237 1.063 3.627 4.909 1.237 1.8 3.215 3.109 5.44 3.436.413.082.908-.245.99-.654.083-.41-.247-.9-.66-.982-1.73-.328-3.38-1.31-4.368-2.782-2.886-4.418-3.71-5.073-4.04-5.318-1.071-.737-2.555-.491-3.38.572l-5.028 7.937c-.33.49-.412 1.063-.33 1.636-.494.164-.99.41-1.236.9l-1.32 2.046c-.741 1.063-.411 2.536.66 3.272.742.573 2.308 1.555 4.617 3.028.164.081.33.163.412.163.247 0 .494-.163.66-.409.246-.409.164-.9-.248-1.145-2.226-1.473-3.792-2.455-4.534-3.028-.33-.245-.412-.654-.165-1.063l1.237-1.882c.247-.327.742-.41 1.071-.164l25.885 19.146c.989.736 2.143 1.063 3.297 1.063h11.376c-1.73.819-4.121 1.555-6.182 1.555h-5.276a7.433 7.433 0 01-3.957-1.145 5074.02 5074.02 0 01-20.197-12.846c-.412-.245-.906-.164-1.154.246-.247.409-.165.9.248 1.145 6.347 4.09 15.003 9.573 19.866 12.682h-21.268c-.494 0-.824.327-.824.818 0 .49.33.818.824.818h31.655c3.38 0 8.244-1.8 9.48-3.518 1.072-1.473 1.154-2.864.412-4.173zm-18.218-7.363l-6.43-10.882a2.19 2.19 0 011.154-.573c.495-.082 1.402 0 2.226.9l.495.818h-.742c-.495 0-.824.328-.824.818 0 .491.33.819.824.819h1.731l.824 1.309h-.66c-.494 0-.823.327-.823.818 0 .49.33.818.824.818h1.649l.989 1.555h-.66c-.494 0-.824.327-.824.818 0 .49.33.818.824.818h1.649l2.308 3.6-4.534-1.636zm-25.39-10.882l2.556-4.01.494 4.746c0 .327-.082.655-.247.9-.165.246-.495.9-1.236.327 0 0-.413-.245-1.155-.818-.494-.409-.577-.818-.412-1.145zM8.481 27.47H5.698V35H.557V13.672H8.95c2.53 0 4.507.561 5.933 1.684 1.426 1.123 2.138 2.71 2.138 4.761 0 1.485-.3 2.715-.9 3.692-.601.976-1.54 1.767-2.82 2.373l4.453 8.598V35h-5.508l-3.765-7.53zm-2.783-3.969H8.95c.977 0 1.712-.256 2.205-.77.493-.512.74-1.227.74-2.145 0-.918-.25-1.638-.748-2.16-.498-.523-1.23-.784-2.197-.784H5.698V23.5zm32.49 1.274c0 2.08-.385 3.921-1.157 5.523-.771 1.601-1.867 2.834-3.288 3.699-1.421.864-3.04 1.296-4.856 1.296-1.817 0-3.428-.418-4.834-1.252-1.407-.835-2.503-2.03-3.289-3.582-.786-1.553-1.199-3.335-1.238-5.347v-1.2c0-2.09.384-3.934 1.15-5.53.767-1.597 1.865-2.83 3.296-3.7 1.43-.869 3.06-1.303 4.885-1.303 1.807 0 3.418.43 4.834 1.289 1.416.86 2.517 2.082 3.304 3.67.786 1.586 1.184 3.405 1.193 5.456v.981zm-5.229-.893c0-2.12-.354-3.728-1.062-4.827-.708-1.098-1.721-1.648-3.04-1.648-2.578 0-3.94 1.934-4.086 5.801l-.015 1.567c0 2.09.347 3.697 1.04 4.82.693 1.123 1.724 1.684 3.09 1.684 1.3 0 2.3-.551 3.004-1.655.703-1.103 1.06-2.69 1.069-4.76v-.982zm25.137 3.896c-.069 1.485-.469 2.796-1.201 3.933-.733 1.138-1.76 2.02-3.084 2.644-1.323.625-2.834.938-4.534.938-2.802 0-5.01-.913-6.62-2.74-1.612-1.825-2.418-4.404-2.418-7.734v-1.054c0-2.09.364-3.919 1.092-5.486.727-1.568 1.774-2.779 3.142-3.633 1.367-.855 2.949-1.282 4.746-1.282 2.588 0 4.668.681 6.24 2.044 1.572 1.362 2.466 3.24 2.68 5.632h-5.126c-.04-1.299-.367-2.231-.982-2.798-.615-.566-1.552-.85-2.812-.85-1.28 0-2.217.48-2.813 1.436-.595.957-.908 2.485-.937 4.585v1.509c0 2.275.285 3.901.857 4.878.571.976 1.555 1.465 2.951 1.465 1.182 0 2.085-.279 2.71-.835.625-.557.957-1.44.996-2.652h5.113zm9.682-.717l-2.11 2.314V35h-5.14V13.672h5.14v9.404l1.788-2.71 4.6-6.694h6.357l-7.207 9.433L78.413 35H72.32l-4.54-7.94zm25.166-1.1h-8.086v5.084h9.551V35H79.717V13.672h14.721v3.97h-9.58v4.497h8.086v3.823zm20.596-8.32h-6.401V35h-5.142V17.642h-6.284v-3.97h17.827v3.97zm12.935 11.69c0-.752-.267-1.338-.799-1.758-.532-.42-1.467-.854-2.805-1.303-1.338-.45-2.432-.884-3.281-1.304-2.764-1.358-4.146-3.223-4.146-5.596 0-1.182.345-2.224 1.033-3.127.689-.904 1.663-1.607 2.922-2.11 1.26-.503 2.676-.754 4.248-.754 1.534 0 2.908.273 4.124.82 1.216.547 2.16 1.326 2.834 2.337.674 1.01 1.011 2.165 1.011 3.464h-5.127c0-.87-.266-1.543-.798-2.021-.532-.479-1.253-.718-2.16-.718-.919 0-1.644.202-2.176.608-.532.405-.798.92-.798 1.545 0 .547.293 1.043.879 1.487.585.444 1.616.903 3.09 1.377 1.475.473 2.686.984 3.633 1.53 2.305 1.329 3.457 3.16 3.457 5.494 0 1.865-.703 3.33-2.11 4.394-1.405 1.065-3.334 1.597-5.785 1.597-1.729 0-3.294-.31-4.695-.93-1.401-.62-2.456-1.47-3.164-2.549-.708-1.08-1.062-2.322-1.062-3.728h5.156c0 1.143.295 1.985.886 2.527s1.55.813 2.879.813c.85 0 1.52-.183 2.014-.55.493-.366.74-.88.74-1.545zM152.08 35h-5.112v-8.906h-7.573V35h-5.142V13.672h5.142v8.467h7.573v-8.467h5.112V35zm21.314-10.225c0 2.08-.386 3.921-1.158 5.523-.771 1.601-1.867 2.834-3.288 3.699-1.421.864-3.04 1.296-4.856 1.296-1.817 0-3.428-.418-4.834-1.252-1.406-.835-2.503-2.03-3.289-3.582-.786-1.553-1.198-3.335-1.238-5.347v-1.2c0-2.09.384-3.934 1.15-5.53.767-1.597 1.866-2.83 3.296-3.7 1.43-.869 3.06-1.303 4.886-1.303 1.806 0 3.417.43 4.833 1.289 1.417.86 2.518 2.082 3.304 3.67.786 1.586 1.184 3.405 1.194 5.456v.981zm-5.23-.893c0-2.12-.354-3.728-1.062-4.827-.708-1.098-1.721-1.648-3.04-1.648-2.578 0-3.94 1.934-4.086 5.801l-.015 1.567c0 2.09.347 3.697 1.04 4.82.693 1.123 1.724 1.684 3.09 1.684 1.3 0 2.3-.551 3.004-1.655.703-1.103 1.06-2.69 1.07-4.76v-.982zm21.108 2.08h-8.085v5.083h9.55V35h-14.692V13.672h14.722v3.97h-9.58v4.497h8.085v3.823zm14.561 3.37c0-.753-.266-1.339-.798-1.759-.533-.42-1.468-.854-2.806-1.303-1.337-.45-2.431-.884-3.28-1.304-2.764-1.358-4.146-3.223-4.146-5.596 0-1.182.344-2.224 1.032-3.127.689-.904 1.663-1.607 2.923-2.11 1.26-.503 2.676-.754 4.248-.754 1.533 0 2.908.273 4.123.82 1.216.547 2.161 1.326 2.835 2.337.674 1.01 1.01 2.165 1.01 3.464h-5.126c0-.87-.266-1.543-.799-2.021-.532-.479-1.252-.718-2.16-.718-.918 0-1.643.202-2.176.608-.532.405-.798.92-.798 1.545 0 .547.293 1.043.879 1.487.586.444 1.616.903 3.09 1.377 1.475.473 2.686.984 3.634 1.53 2.304 1.329 3.457 3.16 3.457 5.494 0 1.865-.704 3.33-2.11 4.394-1.406 1.065-3.335 1.597-5.786 1.597-1.728 0-3.293-.31-4.695-.93-1.401-.62-2.456-1.47-3.164-2.549-.708-1.08-1.062-2.322-1.062-3.728h5.156c0 1.143.296 1.985.887 2.527.59.542 1.55.813 2.878.813.85 0 1.521-.183 2.014-.55.493-.366.74-.88.74-1.545z"/>
  </g>
</svg>
