<svg width="288" height="45" viewBox="0 0 288 45" fill="none" xmlns="http://www.w3.org/2000/svg">
<path fill-rule="evenodd" clip-rule="evenodd" d="M285.872 34.0057C286.482 34.3082 287.094 34.8146 287.399 35.4197C288.315 37.0363 288.214 38.7542 286.89 40.5733C285.363 42.695 279.356 44.918 275.182 44.918H236.089C235.479 44.918 235.071 44.5129 235.071 43.9078C235.071 43.3014 235.479 42.8975 236.089 42.8975H262.354C260.289 41.5774 257.671 39.9106 254.805 38.0864C249.335 34.6049 242.964 30.5499 237.82 27.2355C237.31 26.9329 237.209 26.3265 237.514 25.8214C237.82 25.3151 238.43 25.215 238.939 25.5176C247.241 30.8254 255.555 36.1136 263.882 41.3822C265.345 42.3045 267.039 42.7947 268.769 42.7963H275.285C277.83 42.7963 280.783 41.8873 282.919 40.8759H268.87C267.445 40.8759 266.02 40.472 264.798 39.5631L232.831 15.9181C232.425 15.6143 231.813 15.7168 231.508 16.1206L229.981 18.4449C229.676 18.95 229.777 19.4551 230.184 19.7577C230.811 20.2412 231.912 20.9607 233.424 21.9484C234.125 22.406 234.913 22.9212 235.784 23.4972C236.293 23.7998 236.394 24.4061 236.09 24.9112C235.885 25.2151 235.58 25.4164 235.275 25.4164C235.174 25.4164 234.969 25.3152 234.766 25.2152C234.387 24.9733 234.024 24.7421 233.678 24.5215C231.418 23.0824 229.859 22.0891 229.064 21.4755C227.742 20.5666 227.334 18.7474 228.249 17.4347L229.879 14.9079C230.183 14.3027 230.796 13.9989 231.406 13.7964C231.304 13.0887 231.406 12.3811 231.813 11.776L238.023 1.97389C239.042 0.661099 240.874 0.357293 242.197 1.26748C242.605 1.57005 243.622 2.37896 247.186 7.83512C248.407 9.65302 250.444 10.8658 252.581 11.2708C253.091 11.3721 253.498 11.9773 253.396 12.4836C253.295 12.9887 252.683 13.3925 252.173 13.2913C249.425 12.8874 246.983 11.2708 245.455 9.04788C242.72 4.64691 241.47 3.45644 241.058 3.06464C241.025 3.03359 240.998 3.00756 240.976 2.98534C240.568 2.68153 239.958 2.7828 239.653 3.18664L238.43 5.10704L239.347 13.5951C239.347 14.5028 239.143 15.413 238.634 16.1206C238.125 16.8283 237.718 17.0296 237.718 17.0296L266.121 37.9465C266.936 38.5529 267.954 38.8554 268.973 38.8554H285.567C286.076 38.0478 286.076 37.2389 285.668 36.4312C285.567 36.1274 285.363 36.0261 285.16 35.9248L277.524 32.9942L274.47 31.8827H274.368L263.983 27.9431C263.78 27.9431 263.577 27.7406 263.475 27.5381L255.025 13.19C254.821 12.8862 254.821 12.5836 254.924 12.2811C255.432 11.1696 256.654 10.2606 258.18 10.0581C259.912 9.85555 261.539 10.5632 262.762 11.9773C262.864 11.9773 262.864 12.0785 262.864 12.0785L264.187 14.2002H265.104C265.714 14.2002 266.121 14.6053 266.121 15.2117C266.115 15.4195 266.043 15.6199 265.914 15.7835C265.786 15.9471 265.609 16.0652 265.409 16.1206L266.427 17.7372H267.445C268.056 17.7372 268.464 18.1423 268.464 18.7474C268.464 19.2525 268.158 19.6576 267.649 19.7577L268.87 21.7793H269.889C270.499 21.7793 270.907 22.1844 270.907 22.7895C270.907 23.2946 270.602 23.6985 270.092 23.7998L272.739 28.1444C273.248 28.9533 274.062 29.5597 274.978 29.9636L278.135 31.075L285.872 34.0057ZM256.959 12.8874L264.9 26.3265L270.499 28.347L267.649 23.901H265.612C265.002 23.901 264.595 23.496 264.595 22.8908C264.595 22.2844 265.002 21.8806 265.612 21.8806H266.427L265.206 19.9602H263.17C262.559 19.9602 262.152 19.5551 262.152 18.95C262.152 18.3436 262.558 17.9398 263.168 17.9398H263.983L262.966 16.3232H260.828C260.218 16.3232 259.81 15.9181 259.81 15.3117C259.81 14.7066 260.217 14.3015 260.828 14.3015H261.744L261.133 13.2913C260.115 12.1798 258.995 12.0785 258.384 12.1798C257.849 12.2674 257.352 12.514 256.959 12.8874ZM236.7 7.93515L233.543 12.8874C233.34 13.2913 233.442 13.7964 234.052 14.3015C234.969 15.0091 235.479 15.3117 235.479 15.3117C236.325 15.9665 236.738 15.3239 236.956 14.9835C236.974 14.9561 236.99 14.9306 237.005 14.9079C237.209 14.6053 237.31 14.2002 237.31 13.7964L236.7 7.93515Z" fill="black"/>
<path d="M245.659 37.744C246.269 37.744 246.676 38.149 246.676 38.7542C246.676 39.2593 246.27 39.7644 245.659 39.7644H227.944C227.334 39.7644 226.927 39.3605 226.927 38.7542C226.927 38.1478 227.334 37.744 227.944 37.744H245.659Z" fill="black"/>
<path d="M229.981 42.7963H232.016C232.626 42.7963 233.035 43.2014 233.035 43.8065C233.035 44.4129 232.627 44.8167 232.017 44.8167H229.981C229.371 44.8167 228.963 44.4129 228.963 43.8065C228.963 43.2001 229.369 42.7963 229.981 42.7963Z" fill="black"/>
<path d="M235.784 32.6916C236.394 32.6916 236.801 33.0967 236.801 33.7019C236.801 34.207 236.394 34.7133 235.784 34.7133H225.909C225.298 34.7133 224.89 34.3082 224.89 33.7019C224.89 33.0955 225.298 32.6916 225.909 32.6916H235.784Z" fill="black"/>
<path d="M8.48101 36.47H5.69801V44H0.557007V22.672H8.95001C11.48 22.672 13.457 23.233 14.883 24.356C16.309 25.479 17.021 27.066 17.021 29.117C17.021 30.602 16.721 31.832 16.121 32.809C15.52 33.785 14.581 34.576 13.301 35.182L17.754 43.78V44H12.246L8.48101 36.47ZM5.69801 32.501H8.95001C9.92701 32.501 10.662 32.245 11.155 31.731C11.648 31.219 11.895 30.504 11.895 29.586C11.895 28.668 11.645 27.948 11.147 27.426C10.649 26.903 9.91701 26.642 8.95001 26.642H5.69801V32.501ZM38.188 33.775C38.188 35.855 37.803 37.696 37.031 39.298C36.26 40.899 35.164 42.132 33.743 42.997C32.322 43.861 30.703 44.293 28.887 44.293C27.07 44.293 25.459 43.875 24.053 43.041C22.646 42.206 21.55 41.011 20.764 39.459C19.978 37.906 19.565 36.124 19.526 34.112V32.912C19.526 30.822 19.91 28.978 20.676 27.382C21.443 25.785 22.541 24.552 23.972 23.682C25.402 22.813 27.032 22.379 28.857 22.379C30.664 22.379 32.275 22.809 33.691 23.668C35.107 24.528 36.208 25.75 36.995 27.338C37.781 28.924 38.179 30.743 38.188 32.794V33.775ZM32.959 32.882C32.959 30.762 32.605 29.154 31.897 28.055C31.189 26.957 30.176 26.407 28.857 26.407C26.279 26.407 24.917 28.341 24.771 32.208L24.756 33.775C24.756 35.865 25.103 37.472 25.796 38.595C26.489 39.718 27.52 40.279 28.886 40.279C30.186 40.279 31.186 39.728 31.89 38.624C32.593 37.521 32.95 35.934 32.959 33.864V32.882ZM58.096 36.778C58.027 38.263 57.627 39.574 56.895 40.711C56.162 41.849 55.135 42.731 53.811 43.355C52.488 43.98 50.977 44.293 49.277 44.293C46.475 44.293 44.267 43.38 42.657 41.553C41.045 39.728 40.239 37.149 40.239 33.819V32.765C40.239 30.675 40.603 28.846 41.331 27.279C42.058 25.711 43.105 24.5 44.473 23.646C45.84 22.791 47.422 22.364 49.219 22.364C51.807 22.364 53.887 23.045 55.459 24.408C57.031 25.77 57.925 27.648 58.139 30.04H53.013C52.973 28.741 52.646 27.809 52.031 27.242C51.416 26.676 50.479 26.392 49.219 26.392C47.939 26.392 47.002 26.872 46.406 27.828C45.811 28.785 45.498 30.313 45.469 32.413V33.922C45.469 36.197 45.754 37.823 46.326 38.8C46.897 39.776 47.881 40.265 49.277 40.265C50.459 40.265 51.362 39.986 51.987 39.43C52.612 38.873 52.944 37.99 52.983 36.778H58.096ZM67.778 36.061L65.668 38.375V44H60.528V22.672H65.668V32.076L67.456 29.366L72.056 22.672H78.413L71.206 32.105L78.413 44H72.32L67.78 36.06L67.778 36.061ZM92.944 34.961H84.858V40.045H94.409V44H79.717V22.672H94.438V26.642H84.858V31.139H92.944V34.961ZM113.54 26.641H107.139V44H101.997V26.642H95.713V22.672H113.54V26.641ZM126.475 38.331C126.475 37.579 126.208 36.993 125.676 36.573C125.144 36.153 124.209 35.719 122.871 35.27C121.533 34.82 120.439 34.386 119.59 33.966C116.826 32.608 115.444 30.743 115.444 28.37C115.444 27.188 115.789 26.146 116.477 25.243C117.166 24.339 118.14 23.636 119.399 23.133C120.659 22.63 122.075 22.379 123.647 22.379C125.181 22.379 126.555 22.652 127.771 23.199C128.987 23.746 129.931 24.525 130.605 25.536C131.279 26.546 131.616 27.701 131.616 29H126.489C126.489 28.13 126.223 27.457 125.691 26.979C125.159 26.5 124.438 26.261 123.531 26.261C122.612 26.261 121.887 26.463 121.355 26.869C120.823 27.274 120.557 27.789 120.557 28.414C120.557 28.961 120.85 29.457 121.436 29.901C122.021 30.345 123.052 30.804 124.526 31.278C126.001 31.751 127.212 32.262 128.159 32.808C130.464 34.137 131.616 35.968 131.616 38.302C131.616 40.167 130.913 41.632 129.506 42.696C128.101 43.761 126.172 44.293 123.721 44.293C121.992 44.293 120.427 43.983 119.026 43.363C117.625 42.743 116.57 41.893 115.862 40.814C115.154 39.734 114.8 38.492 114.8 37.086H119.956C119.956 38.229 120.251 39.071 120.842 39.613C121.433 40.155 122.392 40.426 123.721 40.426C124.571 40.426 125.241 40.243 125.735 39.876C126.228 39.51 126.475 38.996 126.475 38.331ZM152.08 44H146.968V35.094H139.395V44H134.253V22.672H139.395V31.139H146.968V22.672H152.08V44ZM173.394 33.775C173.394 35.855 173.008 37.696 172.236 39.298C171.465 40.899 170.369 42.132 168.948 42.997C167.527 43.861 165.908 44.293 164.092 44.293C162.275 44.293 160.664 43.875 159.258 43.041C157.852 42.206 156.755 41.011 155.969 39.459C155.183 37.906 154.771 36.124 154.731 34.112V32.912C154.731 30.822 155.115 28.978 155.881 27.382C156.648 25.785 157.747 24.552 159.177 23.682C160.607 22.813 162.237 22.379 164.063 22.379C165.869 22.379 167.48 22.809 168.896 23.668C170.313 24.528 171.414 25.75 172.2 27.338C172.986 28.924 173.384 30.743 173.394 32.794V33.775ZM168.164 32.882C168.164 30.762 167.81 29.154 167.102 28.055C166.394 26.957 165.381 26.407 164.062 26.407C161.484 26.407 160.122 28.341 159.976 32.208L159.961 33.775C159.961 35.865 160.308 37.472 161.001 38.595C161.694 39.718 162.725 40.279 164.091 40.279C165.391 40.279 166.391 39.728 167.095 38.624C167.798 37.521 168.155 35.934 168.165 33.864L168.164 32.882ZM189.272 34.962H181.187V40.045H190.737V44H176.045V22.672H190.767V26.642H181.187V31.139H189.272V34.962ZM203.833 38.332C203.833 37.579 203.567 36.993 203.035 36.573C202.502 36.153 201.567 35.719 200.229 35.27C198.892 34.82 197.798 34.386 196.949 33.966C194.185 32.608 192.803 30.743 192.803 28.37C192.803 27.188 193.147 26.146 193.835 25.243C194.524 24.339 195.498 23.636 196.758 23.133C198.018 22.63 199.434 22.379 201.006 22.379C202.539 22.379 203.914 22.652 205.129 23.199C206.345 23.746 207.29 24.525 207.964 25.536C208.638 26.546 208.974 27.701 208.974 29H203.848C203.848 28.13 203.582 27.457 203.049 26.979C202.517 26.5 201.797 26.261 200.889 26.261C199.971 26.261 199.246 26.463 198.713 26.869C198.181 27.274 197.915 27.789 197.915 28.414C197.915 28.961 198.208 29.457 198.794 29.901C199.38 30.345 200.41 30.804 201.884 31.278C203.359 31.751 204.57 32.262 205.518 32.808C207.822 34.137 208.975 35.968 208.975 38.302C208.975 40.167 208.271 41.632 206.865 42.696C205.459 43.761 203.53 44.293 201.079 44.293C199.351 44.293 197.786 43.983 196.384 43.363C194.983 42.743 193.928 41.893 193.22 40.814C192.512 39.734 192.158 38.492 192.158 37.086H197.314C197.314 38.229 197.61 39.071 198.201 39.613C198.791 40.155 199.751 40.426 201.079 40.426C201.929 40.426 202.6 40.243 203.093 39.876C203.586 39.51 203.833 38.996 203.833 38.331V38.332Z" fill="#7159C1"/>
</svg>
