<svg width="200" height="179" viewBox="0 0 200 179" fill="none" xmlns="http://www.w3.org/2000/svg">
<g clip-path="url(#clip0)">
<path d="M41.9447 178.396V168.32H45.4739C46.4521 168.254 47.4261 168.5 48.2557 169.022C48.5709 169.261 48.8224 169.574 48.9878 169.933C49.1532 170.292 49.2274 170.686 49.204 171.081C49.213 171.545 49.0802 172 48.8235 172.386C48.5651 172.766 48.1942 173.055 47.7629 173.213C48.2497 173.322 48.6827 173.599 48.9862 173.995C49.2915 174.412 49.4486 174.919 49.4324 175.435C49.4601 175.848 49.3907 176.263 49.2297 176.645C49.0687 177.027 48.8207 177.366 48.5053 177.635C47.7355 178.181 46.8035 178.449 45.8614 178.397L41.9447 178.396ZM44.0208 174.012V176.729H45.7992C46.2106 176.754 46.6172 176.63 46.9447 176.38C47.0815 176.26 47.1896 176.112 47.2609 175.945C47.3322 175.778 47.3648 175.598 47.3563 175.416C47.3796 175.224 47.3584 175.029 47.2943 174.845C47.2301 174.662 47.1247 174.497 46.9862 174.361C46.8478 174.225 46.6799 174.123 46.4957 174.062C46.3114 174.002 46.1157 173.984 45.9236 174.011L44.0208 174.012ZM44.0208 172.545H45.5574C46.6048 172.526 47.1286 172.109 47.1286 171.293C47.1459 171.108 47.1188 170.922 47.0495 170.751C46.9803 170.579 46.8709 170.427 46.7305 170.306C46.3541 170.076 45.9145 169.97 45.4746 170.005H44.0208V172.545ZM65.0221 173.59C65.0407 174.486 64.8608 175.376 64.4953 176.194C64.1752 176.907 63.6514 177.509 62.9899 177.925C62.3141 178.338 61.5345 178.549 60.7427 178.535C59.9559 178.548 59.1813 178.339 58.5075 177.933C57.8432 177.521 57.3144 176.922 56.9865 176.213C56.6135 175.408 56.4267 174.529 56.4399 173.642V173.147C56.4214 172.245 56.6046 171.352 56.9759 170.53C57.2992 169.815 57.8263 169.21 58.4912 168.793C59.1653 168.384 59.9415 168.174 60.7299 168.188C61.5184 168.174 62.2946 168.384 62.9687 168.793C63.6336 169.21 64.1607 169.815 64.484 170.53C64.8554 171.35 65.0385 172.243 65.02 173.143L65.0221 173.59ZM62.9185 173.133C62.9734 172.292 62.7764 171.453 62.3528 170.725C62.1763 170.459 61.9343 170.244 61.65 170.1C61.3658 169.955 61.0491 169.887 60.7307 169.901C60.4148 169.887 60.1008 169.955 59.8186 170.097C59.5363 170.24 59.2953 170.452 59.1184 170.714C58.6936 171.434 58.4937 172.264 58.5443 173.098V173.59C58.4952 174.426 58.6918 175.258 59.1099 175.984C59.2842 176.256 59.5268 176.477 59.8133 176.625C60.0998 176.774 60.4203 176.845 60.7427 176.831C61.0584 176.844 61.3723 176.776 61.6538 176.632C61.9352 176.489 62.1746 176.274 62.3485 176.01C62.7673 175.286 62.9641 174.455 62.9142 173.62L62.9185 173.133ZM80.5631 173.59C80.5814 174.486 80.4013 175.376 80.0356 176.194C79.7155 176.907 79.1917 177.509 78.5302 177.925C77.8547 178.337 77.0756 178.548 76.2844 178.533C75.4976 178.547 74.723 178.338 74.0492 177.932C73.3849 177.52 72.8559 176.922 72.5275 176.213C72.1545 175.408 71.9677 174.529 71.9809 173.642V173.147C71.9624 172.245 72.1456 171.352 72.5169 170.53C72.8402 169.815 73.3673 169.21 74.0322 168.793C74.7063 168.384 75.4825 168.174 76.2709 168.188C77.0594 168.174 77.8356 168.384 78.5097 168.793C79.174 169.209 79.7013 169.811 80.0257 170.525C80.3971 171.345 80.5802 172.237 80.5617 173.137L80.5631 173.59ZM78.4595 173.133C78.5144 172.292 78.3174 171.453 77.8938 170.725C77.7173 170.459 77.4751 170.244 77.1907 170.099C76.9064 169.955 76.5895 169.887 76.2709 169.901C75.9551 169.887 75.6411 169.955 75.3589 170.097C75.0766 170.24 74.8356 170.452 74.6587 170.714C74.2339 171.434 74.0339 172.264 74.0845 173.098V173.59C74.0364 174.426 74.2335 175.257 74.6516 175.982C74.8257 176.254 75.0683 176.476 75.3549 176.625C75.6416 176.774 75.9624 176.845 76.2851 176.831C76.6005 176.845 76.9142 176.776 77.1955 176.633C77.4768 176.49 77.7161 176.276 77.8902 176.013C78.309 175.288 78.5058 174.457 78.4559 173.622L78.4595 173.133ZM94.8221 170.002H91.7356V178.396H89.6595V170.002H86.6146V168.32H94.8221V170.002ZM109.477 175.04C109.462 175.526 109.348 176.004 109.141 176.445C108.934 176.885 108.639 177.278 108.275 177.601C107.47 178.252 106.454 178.584 105.42 178.535C104.847 178.562 104.274 178.459 103.746 178.233C103.218 178.007 102.748 177.664 102.372 177.23C101.581 176.21 101.187 174.937 101.26 173.649V173.033C101.242 172.152 101.417 171.278 101.772 170.472C102.081 169.774 102.59 169.183 103.236 168.775C103.902 168.372 104.669 168.167 105.447 168.183C106.469 168.133 107.472 168.466 108.261 169.116C108.998 169.796 109.44 170.738 109.491 171.739H107.412C107.413 171.217 107.22 170.713 106.869 170.325C106.469 170.002 105.96 169.845 105.447 169.886C105.146 169.867 104.845 169.925 104.573 170.055C104.3 170.186 104.066 170.383 103.892 170.63C103.496 171.332 103.312 172.134 103.362 172.938V173.7C103.302 174.526 103.474 175.352 103.857 176.087C104.028 176.339 104.263 176.541 104.538 176.673C104.813 176.805 105.117 176.863 105.421 176.839C105.938 176.88 106.451 176.723 106.857 176.4C107.205 176.033 107.399 175.546 107.4 175.04H109.477ZM122.284 176.32H118.643L117.948 178.396H115.741L119.488 168.32H121.413L125.184 178.396H122.983L122.284 176.32ZM119.204 174.639H121.723L120.457 170.867L119.204 174.639ZM134.6 168.32L137.188 175.629L139.762 168.32H142.485V178.396H140.402V175.638L140.61 170.884L137.893 178.396H136.468L133.755 170.894L133.963 175.642V178.4H131.887V168.323L134.6 168.32ZM152.136 174.846V178.396H150.06V168.32H153.991C154.679 168.305 155.362 168.447 155.988 168.735C156.536 168.989 156.997 169.399 157.313 169.915C157.626 170.441 157.787 171.043 157.777 171.655C157.797 172.096 157.716 172.535 157.54 172.939C157.364 173.344 157.098 173.703 156.763 173.989C155.959 174.6 154.964 174.903 153.956 174.844L152.136 174.846ZM152.136 173.165H153.991C154.443 173.196 154.891 173.058 155.247 172.777C155.395 172.636 155.511 172.463 155.585 172.272C155.66 172.08 155.692 171.875 155.679 171.67C155.689 171.452 155.655 171.233 155.581 171.028C155.506 170.823 155.391 170.634 155.243 170.473C155.085 170.317 154.898 170.194 154.691 170.113C154.484 170.032 154.263 169.994 154.041 170.002H152.138L152.136 173.165Z" fill="#303030"/>
<path d="M30.8974 145.118C29.2965 146.931 27.2392 148.283 24.9393 149.032C22.199 149.988 19.3129 150.459 16.4107 150.423C13.3974 150.491 10.4208 149.751 7.78956 148.281C5.29821 146.828 3.30376 144.657 2.06758 142.052C0.661693 139.05 -0.0452329 135.769 -2.23862e-05 132.455V129.88C-0.0823487 126.508 0.569083 123.158 1.90919 120.063C3.06189 117.437 4.98542 115.224 7.4247 113.717C9.97766 112.211 12.901 111.45 15.8641 111.519C20.3548 111.519 23.8668 112.59 26.4002 114.731C28.9335 116.872 30.4333 119.989 30.8995 124.08H23.3051C22.9581 121.912 22.1909 120.325 21.0034 119.321C19.6033 118.246 17.8632 117.711 16.101 117.813C14.9194 117.751 13.7419 117.994 12.681 118.518C11.62 119.042 10.7111 119.829 10.041 120.804C8.65413 122.798 7.95197 125.763 7.93452 129.699V132.118C7.93452 136.088 8.68878 139.088 10.1973 141.116C11.7058 143.145 13.9165 144.158 16.8293 144.157C19.7596 144.157 21.8489 143.533 23.0972 142.284V135.756H15.9971V130.009H30.8995L30.8974 145.118ZM35.5531 135.572C35.5063 132.993 36.0582 130.438 37.1653 128.108C38.1753 125.994 39.7913 124.229 41.8075 123.037C43.9448 121.81 46.3761 121.19 48.8398 121.243C52.637 121.243 55.7363 122.405 58.1376 124.728C60.539 127.052 61.8785 130.207 62.1562 134.195L62.2106 136.118C62.2106 140.436 61.0057 143.899 58.5959 146.509C56.186 149.119 52.9524 150.423 48.8949 150.423C44.8375 150.423 41.5996 149.123 39.1813 146.522C36.7629 143.921 35.5535 140.384 35.5531 135.911V135.572ZM43.069 136.118C43.069 138.789 43.5718 140.83 44.5773 142.243C45.0591 142.933 45.7077 143.489 46.4626 143.86C47.2175 144.231 48.0541 144.405 48.8942 144.365C49.7234 144.398 50.5477 144.224 51.2926 143.858C52.0375 143.492 52.6794 142.947 53.1603 142.27C54.1832 140.875 54.6947 138.642 54.6947 135.573C54.6947 132.955 54.1832 130.926 53.1603 129.487C52.6817 128.791 52.0343 128.228 51.2786 127.85C50.5229 127.473 49.6838 127.293 48.8398 127.328C48.0057 127.294 47.1765 127.472 46.4306 127.847C45.6848 128.222 45.0469 128.781 44.5773 129.472C43.5718 130.904 43.069 133.119 43.069 136.118Z" fill="black"/>
<path d="M86.9703 139.967C87.0057 139.317 86.8821 138.668 86.6101 138.077C86.3382 137.486 85.9262 136.969 85.4097 136.573C84.3693 135.784 82.4969 134.952 79.7924 134.076C77.5799 133.402 75.4304 132.536 73.3682 131.488C69.0685 129.165 66.9186 126.035 66.9186 122.099C66.8925 120.136 67.4989 118.216 68.6482 116.625C69.9185 114.931 71.64 113.628 73.6157 112.866C75.9246 111.936 78.3959 111.476 80.8849 111.514C83.3734 111.469 85.8415 111.97 88.1151 112.983C90.1192 113.868 91.829 115.307 93.0437 117.131C94.221 118.94 94.8323 121.059 94.7995 123.217H86.9965C87.0391 122.464 86.9143 121.711 86.631 121.011C86.3477 120.312 85.913 119.684 85.3581 119.173C84.0538 118.141 82.4138 117.628 80.7541 117.733C79.1792 117.638 77.6167 118.063 76.307 118.943C75.8037 119.304 75.3961 119.784 75.1196 120.338C74.8431 120.893 74.7061 121.507 74.7202 122.127C74.7356 122.76 74.915 123.377 75.241 123.92C75.567 124.463 76.0284 124.911 76.5799 125.222C78.2844 126.258 80.1277 127.046 82.0544 127.562C86.4932 128.897 89.7269 130.553 91.7554 132.53C92.7478 133.482 93.5308 134.631 94.0543 135.903C94.5779 137.174 94.8305 138.541 94.796 139.916C94.855 141.408 94.5466 142.891 93.8981 144.236C93.2495 145.58 92.2806 146.745 91.0765 147.627C88.5969 149.491 85.2593 150.423 81.0638 150.423C78.3286 150.459 75.6169 149.914 73.108 148.824C70.9048 147.91 69.0064 146.39 67.6335 144.44C66.3609 142.533 65.7028 140.282 65.7476 137.99H73.5761C73.5761 142.169 76.0729 144.258 81.0666 144.258C82.5973 144.347 84.1172 143.952 85.4097 143.127C85.9132 142.773 86.3199 142.298 86.5925 141.746C86.8651 141.194 86.995 140.582 86.9703 139.967ZM108.583 114.845V121.764H113.391V127.279H108.583V141.324C108.51 142.116 108.722 142.909 109.181 143.56C109.58 144.011 110.343 144.236 111.47 144.236C112.211 144.244 112.951 144.183 113.68 144.054V149.75C112.205 150.2 110.671 150.427 109.128 150.423C103.858 150.423 101.171 147.762 101.067 142.439V127.279H96.9583V121.764H101.067V114.846L108.583 114.845ZM133.888 149.903C133.505 149.107 133.25 148.256 133.134 147.38C132.246 148.377 131.15 149.166 129.922 149.691C128.695 150.217 127.368 150.466 126.034 150.421C123.53 150.51 121.084 149.656 119.18 148.028C118.307 147.287 117.61 146.362 117.139 145.318C116.669 144.274 116.438 143.138 116.462 141.994C116.395 140.663 116.664 139.337 117.243 138.138C117.823 136.938 118.694 135.903 119.778 135.128C121.988 133.533 125.183 132.726 129.361 132.709H132.82V131.098C132.878 129.97 132.522 128.861 131.819 127.977C131.412 127.56 130.917 127.239 130.371 127.037C129.824 126.834 129.24 126.756 128.659 126.806C127.59 126.744 126.533 127.067 125.681 127.716C125.323 128.023 125.04 128.407 124.853 128.84C124.666 129.273 124.58 129.742 124.602 130.213H117.087C117.088 128.581 117.617 126.994 118.595 125.688C119.692 124.23 121.167 123.101 122.861 122.424C124.822 121.611 126.928 121.208 129.051 121.241C132.518 121.241 135.271 122.113 137.308 123.857C139.346 125.601 140.365 128.05 140.365 131.204V143.402C140.382 146.072 140.755 148.092 141.483 149.462V149.904L133.888 149.903ZM127.673 144.675C128.741 144.685 129.795 144.43 130.742 143.933C131.62 143.495 132.345 142.801 132.822 141.944V137.108H130.013C126.251 137.108 124.247 138.409 124.003 141.01L123.977 141.452C123.965 141.886 124.047 142.318 124.218 142.717C124.389 143.117 124.644 143.474 124.966 143.766C125.718 144.405 126.687 144.731 127.673 144.675ZM157.842 144.363C159.072 144.418 160.278 144.01 161.222 143.219C161.652 142.839 161.996 142.371 162.229 141.846C162.463 141.321 162.581 140.753 162.575 140.179H169.623C169.618 142.039 169.075 143.858 168.06 145.417C167.027 147.012 165.573 148.29 163.859 149.11C162.025 149.999 160.009 150.448 157.971 150.423C153.949 150.423 150.776 149.144 148.453 146.584C146.13 144.024 144.968 140.492 144.967 135.989V135.494C144.967 131.157 146.12 127.698 148.426 125.117C150.733 122.536 153.897 121.244 157.92 121.242C161.439 121.242 164.261 122.243 166.385 124.246C168.509 126.249 169.589 128.914 169.623 132.243H162.574C162.595 130.931 162.111 129.66 161.222 128.694C160.778 128.237 160.243 127.88 159.651 127.644C159.059 127.409 158.425 127.301 157.789 127.328C157.02 127.283 156.252 127.435 155.558 127.769C154.864 128.103 154.267 128.608 153.822 129.237C152.93 130.51 152.483 132.578 152.483 135.44V136.218C152.483 139.114 152.925 141.194 153.81 142.46C154.264 143.094 154.873 143.601 155.579 143.935C156.284 144.268 157.063 144.415 157.842 144.363ZM184.136 138.616L181.431 141.321V149.903H173.914V109.955H181.43V132.088L182.887 130.215L190.091 121.764H199.116L188.946 133.492L200 149.903H191.365L184.136 138.616Z" fill="#04D361"/>
<path d="M133.39 20.5919C123.458 15.1415 113.404 9.5694 103.471 4.11612C102.464 3.57924 101.341 3.29841 100.2 3.29841C99.0597 3.29841 97.9366 3.57924 96.9301 4.11612C86.9979 9.56728 77.0651 15.1387 67.133 20.5919C66.1809 21.0995 65.3782 21.8472 64.8044 22.7609C64.2307 23.6746 63.906 24.7225 63.8625 25.8006V58.9897C63.8787 60.1054 64.2047 61.1946 64.804 62.1357C65.4034 63.0768 66.2525 63.8328 67.2567 64.3193C70.0427 65.7731 72.7071 67.3471 75.4939 68.801L91.725 77.7644L96.6911 80.5504C97.03 80.7618 97.3967 80.9248 97.7807 81.0348L98.2651 81.2773H98.3868C100.045 81.7333 101.814 81.5608 103.353 80.793C113.286 75.3425 123.218 69.7704 133.151 64.3172C134.149 63.8234 134.993 63.0657 135.592 62.1261C136.19 61.1866 136.52 60.1012 136.545 58.9876V25.7984C136.509 24.733 136.2 23.6947 135.647 22.783C135.095 21.8713 134.318 21.1168 133.39 20.5919ZM90.3892 57.7785L82.6371 64.9253C82.5893 64.9712 82.5319 65.0058 82.4691 65.0267C82.4062 65.0476 82.3395 65.0543 82.2737 65.0462H82.1521C82.1158 65.0358 82.0826 65.0168 82.0553 64.9907C82.0281 64.9646 82.0076 64.9322 81.9957 64.8964C81.9838 64.8606 81.9808 64.8224 81.987 64.7852C81.9932 64.7479 82.0083 64.7128 82.0312 64.6827L84.8172 54.508C84.947 53.9532 85.2149 53.4403 85.596 53.0167C85.9771 52.5932 86.4591 52.2728 86.9972 52.0855L87.1181 51.9645C87.2602 51.9246 87.4091 51.9147 87.5552 51.9355C87.7013 51.9563 87.8414 52.0074 87.9666 52.0855C88.4517 52.4489 88.8152 52.6908 89.2996 53.0542C89.7564 53.3818 90.243 53.6658 90.7527 53.9028C90.894 53.9657 91.0145 54.0674 91.1003 54.1961C91.1862 54.3247 91.2339 54.4751 91.2378 54.6297L91.4796 54.8722C91.5397 55.4081 91.4724 55.9507 91.2831 56.4556C91.0937 56.9605 90.7876 57.4135 90.3899 57.7778L90.3892 57.7785ZM98.3839 50.7533C98.263 50.7533 98.263 50.8742 98.1414 50.8742L95.7188 50.6316C95.5872 50.6154 95.4537 50.6287 95.3279 50.6707C95.2022 50.7126 95.0873 50.7822 94.9919 50.8742L92.3275 53.2968C92.2798 53.3427 92.2223 53.3774 92.1595 53.3983C92.0966 53.4193 92.0298 53.4259 91.964 53.4177C90.6717 52.836 89.4522 52.1043 88.3308 51.2376C88.2099 51.1167 88.0884 50.9951 88.21 50.8742L89.0585 47.3612C89.0979 47.2392 89.1074 47.1095 89.0864 46.9831C89.0653 46.8566 89.0143 46.737 88.9375 46.6343L87.6046 44.5752C87.6046 44.4543 87.4837 44.4543 87.4837 44.3326C87.4837 44.0901 87.6046 43.8483 87.6046 43.4841V43.3632C87.6046 43.3632 87.7256 43.2423 87.7256 43.3632C88.8159 44.0901 93.4186 46.8761 93.4186 46.8761C93.4186 46.8761 98.0219 49.6622 99.1116 50.3891C99.1575 50.4369 99.1922 50.4943 99.2131 50.5572C99.234 50.62 99.2406 50.6868 99.2324 50.7525L98.3839 50.7533ZM114.615 28.5866L114.736 28.7075L117.159 29.071H117.28C117.764 29.1919 118.37 29.7979 117.521 30.8883L107.35 44.6961C107.208 44.7922 107.036 44.835 106.866 44.817L102.747 42.2714C102.545 42.1519 102.315 42.0889 102.081 42.0889C101.846 42.0889 101.616 42.1519 101.415 42.2714L100.082 43.1199C99.8805 43.239 99.6503 43.3017 99.4159 43.3017C99.1815 43.3017 98.9514 43.239 98.7495 43.1199C98.3722 42.8335 97.9009 42.6994 97.4293 42.7444C96.9577 42.7893 96.5203 43.01 96.2039 43.3625C95.364 44.0183 94.3398 44.3944 93.2751 44.4379C92.2104 44.4814 91.1589 44.1901 90.2683 43.605L84.8179 40.2109L84.5754 39.9683C84.4096 39.8295 84.2742 39.658 84.1776 39.4645C84.0811 39.271 84.0254 39.0597 84.0141 38.8438C84.0027 38.6279 84.0359 38.4119 84.1117 38.2094C84.1875 38.0069 84.3042 37.8221 84.4545 37.6667V37.6667C84.6998 37.2702 85.09 36.9851 85.5423 36.8719C85.9946 36.7588 86.4732 36.8265 86.8763 37.0607L87.9666 37.6667H88.0876C88.2092 37.7876 88.3301 37.6667 88.3301 37.5457L88.572 36.0919C88.572 35.971 88.572 35.8494 88.4511 35.8494L88.2092 35.7285C87.9801 35.5735 87.8164 35.3394 87.7493 35.0711C87.6822 34.8028 87.7166 34.5192 87.8458 34.2746C87.9091 34.163 87.9939 34.065 88.0953 33.9863C88.1966 33.9076 88.3125 33.8497 88.4363 33.8159C88.5601 33.7821 88.6893 33.7731 88.8166 33.7895C88.9439 33.8058 89.0667 33.8472 89.1779 33.9112L96.5667 38.3929H96.6883C96.8092 38.5138 96.9301 38.3929 97.0517 38.272L104.682 27.8547C104.837 27.6577 105.044 27.5079 105.28 27.4223C105.515 27.3367 105.77 27.3187 106.015 27.3704L107.953 27.6129L109.285 27.8554C109.285 27.9764 109.406 27.8554 109.406 27.8554C109.527 27.7345 109.527 27.7345 109.406 27.7345C109.17 27.5544 109.013 27.2897 108.968 26.996C108.922 26.7024 108.993 26.4026 109.164 26.1598L111.71 22.6468C111.857 22.4741 112.044 22.3397 112.255 22.2553C112.466 22.171 112.695 22.1391 112.921 22.1624L117.765 22.8894C117.859 22.8911 117.951 22.9138 118.035 22.9558C118.119 22.9977 118.193 23.0579 118.25 23.1319L118.371 23.2528C118.614 23.4954 118.493 23.8588 118.25 24.1013C118.25 24.1013 115.828 27.3718 114.98 28.5831V28.704C114.373 28.344 114.373 28.465 114.615 28.5859V28.5866Z" fill="#04D361"/>
<path d="M110.136 7.87302C113.891 4.96606 115.95 4.36005 119.1 4.36005C120.022 4.36025 120.932 4.56735 121.764 4.96607C124.551 6.54082 125.761 11.2651 124.913 18.0477L128.911 20.2277C130.243 10.5403 128.426 3.87569 123.702 1.21057C122.223 0.386405 120.551 -0.0315147 118.858 -0.000725486C114.615 -0.000725486 111.227 1.21057 105.897 5.44973C107.468 6.29898 108.801 7.14681 110.136 7.87302Z" fill="black"/>
<path d="M63.8632 50.2682C58.2912 47.6031 56.9589 45.423 56.9589 42.3951C56.9589 39.2457 60.1077 36.2178 65.7979 33.5562V28.7075C57.3188 32.2197 52.5946 37.0656 52.5946 42.2735C52.5946 47.6031 55.3807 51.3578 63.8597 54.8708L63.8632 50.2682Z" fill="black"/>
<path d="M75.1255 16.1102C74.3985 9.44778 75.6098 6.66244 78.5196 5.08769C79.319 4.60267 80.2542 4.39003 81.1847 4.4817C84.3342 4.4817 87.9681 6.17878 91.7208 9.08432L95.7181 6.90427C90.5094 2.66158 85.3008 0.24254 81.0616 0.24254C79.368 0.211727 77.6964 0.629623 76.2165 1.45382C71.4923 4.23985 69.5548 8.84248 71.0079 18.5328C72.4632 17.5669 73.7954 16.8371 75.1255 16.1102Z" fill="black"/>
<path d="M136.418 29.9188V34.5214C141.99 37.1865 143.323 39.3666 143.323 42.3944C143.323 45.5439 140.173 48.5718 134.484 51.2334V56.0786C142.963 52.5656 147.687 47.7204 147.687 42.5125C147.683 37.1865 145.016 33.4318 136.418 29.9188Z" fill="black"/>
<path d="M90.2683 76.7956C86.5128 79.7026 84.4537 80.3086 81.3042 80.3086C80.3817 80.3087 79.471 80.1019 78.6391 79.7033C75.7321 78.1286 74.6418 73.2834 75.4896 66.6216C74.1574 65.8947 72.7036 65.1678 71.3714 64.32C70.0392 73.8894 71.8557 80.5511 76.4583 83.2163C77.9382 84.0404 79.6099 84.4583 81.3035 84.4275C85.5462 84.5485 89.0556 83.3372 94.3852 79.098L90.2683 76.7956Z" fill="black"/>
<path d="M125.154 68.6801C125.881 75.3418 124.549 78.1278 121.76 79.7026C120.96 80.1874 120.025 80.3998 119.095 80.3079C115.946 80.3079 112.312 78.6108 108.436 75.7053C107.103 76.4322 105.771 77.1591 104.317 77.8853C109.648 82.2461 114.735 84.6687 119.096 84.6687C120.79 84.6995 122.462 84.2816 123.942 83.4574C128.666 80.6713 130.725 76.0687 129.151 66.3784C127.937 67.1053 126.486 67.8322 125.154 68.6801Z" fill="black"/>
</g>
<defs>
<clipPath id="clip0">
<rect width="200" height="178.535" fill="white"/>
</clipPath>
</defs>
</svg>
